
imdb : http://www.imdb.com/title/tt0278488/
Tagline: You got blunt... You got weed.....
Plot: Two guys by the name of Silas and Jamal decided to one day smoke something magical, which eventually helps them to ace their college entrance exam.
Total Size : 1.35 GB

General
Complete name : How High 2001 DVDRip [H.264-MP4-AAC] ~ Mindbreaker.mp4
Format : H.264/AAC/MP4 - Anamophic
Source : DVD (retail)
File size : 1.35 GiB
Duration : 1h 29mn
Overall bit rate : 2 163 Kbps


Video
ID : 1
Format : AVC
Format/Info : Advanced Video Codec
Format profile : High@L3.0
Duration : 1h 29mn
Bit rate : 2000 Kbps
Width : 720 pixels
Height : 552 pixels
Display aspect ratio : 1.855
Frame rate : 25.000 fps
Bits/(Pixel*Frame) : 0.201
Stream size : 1.25 GiB (92%)
Writing library : x264 core 65

Audio
ID : 2
Format : AAC
Format/Info : Advanced Audio Codec
Format profile : LC
Duration : 1h 29mn
Bit rate : 160 Kbps
Channel(s) : 2 channels
Sampling rate : 48.0 KHz
Stream size : 103 MiB (7%)
Language : English

Subtitle
Format : SubRip
Language : Dutch & English
Source : DVD (retail) 
http://genesis.1337x.org:1337/announce